<svg width="24" height="24" viewBox="0 0 24 24" fill="none" xmlns="http://www.w3.org/2000/svg">
<path fill-rule="evenodd" clip-rule="evenodd" d="M4.58611 10.1011L10.6471 4.04005L11.4014 4.79431L5.34037 10.8553L4.58611 10.1011Z" fill="#A0ACA5"/>
<path fill-rule="evenodd" clip-rule="evenodd" d="M6.59734 12.1123L12.6583 6.05125L13.4126 6.80551L7.3516 12.8665L6.59734 12.1123Z" fill="#A0ACA5"/>
<path fill-rule="evenodd" clip-rule="evenodd" d="M10.8708 16.3865L16.9318 10.3255L17.686 11.0797L11.625 17.1407L10.8708 16.3865Z" fill="#A0ACA5"/>
<path fill-rule="evenodd" clip-rule="evenodd" d="M12.8815 18.3977L18.9425 12.3367L19.6968 13.0909L13.6358 19.1519L12.8815 18.3977Z" fill="#A0ACA5"/>
<path fill-rule="evenodd" clip-rule="evenodd" d="M12.8828 18.3978C10.7906 20.4899 7.40618 20.4975 5.32336 18.4147C3.24053 16.3318 3.24807 12.9474 5.3402 10.8552L4.58594 10.101C2.07539 12.6115 2.06634 16.6729 4.56573 19.1723C7.06513 21.6717 11.1265 21.6626 13.637 19.1521L12.8828 18.3978Z" fill="#A0ACA5"/>
<path fill-rule="evenodd" clip-rule="evenodd" d="M16.932 10.3255L17.6863 11.0797C19.6389 9.12707 19.646 5.96823 17.702 4.02426C15.758 2.08029 12.5992 2.08733 10.6465 4.03998L11.4008 4.79423C12.935 3.26001 15.417 3.25448 16.9444 4.78189C18.4718 6.30929 18.4663 8.79123 16.932 10.3255Z" fill="#A0ACA5"/>
<path fill-rule="evenodd" clip-rule="evenodd" d="M6.59717 12.1125C5.20242 13.5073 5.19739 15.7636 6.58594 17.1522C7.97449 18.5407 10.2308 18.5357 11.6256 17.1409L10.8713 16.3867C9.89497 17.363 8.31555 17.3665 7.34357 16.3945C6.37158 15.4225 6.3751 13.8431 7.35143 12.8668L6.59717 12.1125Z" fill="#A0ACA5"/>
</svg>
