<svg width="16" height="16" viewBox="0 0 16 16" fill="none" xmlns="http://www.w3.org/2000/svg">
<path d="M15.4115 12.3423L10.9412 7.83789L15.0895 3.65864C15.8743 2.869 15.8743 1.58818 15.0895 0.797857C14.3053 0.00787246 13.034 0.0082148 12.2506 0.797857L8.10169 4.9771L3.74996 0.592488C2.9655 -0.197496 1.6942 -0.197496 0.910418 0.592488C0.126638 1.38281 0.126638 2.66294 0.910418 3.45327L5.26248 7.83789L0.588344 12.5466C-0.196115 13.3373 -0.196115 14.6174 0.588344 15.4078C1.37246 16.1974 2.64343 16.1974 3.42721 15.4078L8.10169 10.6987L12.5727 15.2031C13.3568 15.9931 14.6277 15.9931 15.4115 15.2031C16.1963 14.4124 16.196 13.1316 15.4115 12.3423Z" fill="#444443"/>
</svg>
