<svg width="16" height="16" viewBox="0 0 16 16" fill="none" xmlns="http://www.w3.org/2000/svg">
<g clip-path="url(#clip0_201_41)">
<path d="M15.9491 7.07853C15.9151 6.99718 15.8664 6.92318 15.8044 6.86118L13.8051 4.86184C13.5444 4.60184 13.1231 4.60184 12.8624 4.86184C12.6018 5.1225 12.6018 5.5445 12.8624 5.8045L13.7244 6.6665H10.0004C9.63174 6.6665 9.33374 6.96515 9.33374 7.33315C9.33374 7.70115 9.63174 7.99981 10.0004 7.99981H13.7244L12.8624 8.86181C12.6017 9.12247 12.6017 9.54447 12.8624 9.80447C12.9924 9.93512 13.1631 9.99981 13.3337 9.99981C13.5044 9.99981 13.6751 9.93515 13.8051 9.80447L15.8044 7.80512C15.8664 7.74378 15.9151 7.66978 15.9491 7.58778C16.0164 7.42518 16.0164 7.24118 15.9491 7.07853Z" fill="#444443"/>
<path d="M11.3338 9.33334C10.9651 9.33334 10.6671 9.632 10.6671 10V13.3333H8.00049V2.66666C8.00049 2.37266 7.80714 2.11266 7.52514 2.028L5.2098 1.33334H10.6671V4.66669C10.6671 5.03469 10.9651 5.33334 11.3338 5.33334C11.7025 5.33334 12.0005 5.03469 12.0005 4.66669V0.666687C12.0005 0.298656 11.7025 0 11.3338 0H0.667145C0.643145 0 0.621801 0.01 0.598488 0.0126563C0.567145 0.016 0.538488 0.0213125 0.508488 0.0286562C0.438488 0.0466562 0.375145 0.074 0.315832 0.111313C0.301176 0.120656 0.283176 0.121313 0.269176 0.131969C0.263801 0.136 0.261801 0.143344 0.256457 0.147344C0.183801 0.204656 0.123145 0.274656 0.0791445 0.358C0.0698008 0.376 0.0678008 0.395344 0.0604883 0.414C0.0391445 0.464656 0.015832 0.514 0.00783203 0.57C0.00448828 0.59 0.0104883 0.608656 0.00983203 0.628C0.00917578 0.641344 0.000488281 0.653344 0.000488281 0.666656V14C0.000488281 14.318 0.225145 14.5913 0.536488 14.6533L7.20314 15.9867C7.24649 15.996 7.29049 16 7.3338 16C7.48646 16 7.63646 15.9474 7.75646 15.8487C7.91046 15.722 8.00046 15.5333 8.00046 15.3333V14.6667H11.3338C11.7025 14.6667 12.0005 14.368 12.0005 14V10C12.0005 9.632 11.7025 9.33334 11.3338 9.33334Z" fill="#444443"/>
</g>
<defs>
<clipPath id="clip0_201_41">
<rect width="16" height="16" fill="white"/>
</clipPath>
</defs>
</svg>
