<svg width="18" height="18" viewBox="0 0 18 18" fill="none" xmlns="http://www.w3.org/2000/svg">
<g clip-path="url(#clip0_89_32)">
<path d="M16.3604 7.35708H10.6376V1.63896C10.6376 0.733844 9.90728 0 9.00217 0C8.09705 0 7.36717 0.733845 7.36717 1.63936V7.36104H1.64152C0.736407 7.36104 0.000580748 8.09489 0.000977206 9.0004C0.000580748 9.45276 0.183348 9.86745 0.479502 10.1636C0.776053 10.4606 1.1852 10.6481 1.63716 10.6481H7.36717V16.3618C7.36717 16.8146 7.54677 17.2245 7.84332 17.5203C8.13987 17.8168 8.54782 18.0004 9.00058 18.0004C9.9053 18.0004 10.6376 17.2666 10.6376 16.3618V10.6477H16.3604C17.2655 10.6477 17.9994 9.90749 17.999 9.00238C17.9986 8.09766 17.2648 7.35708 16.3604 7.35708Z" fill="#444443"/>
</g>
<defs>
<clipPath id="clip0_89_32">
<rect width="18" height="18" fill="white"/>
</clipPath>
</defs>
</svg>
