<svg width="14" height="14" viewBox="0 0 14 14" fill="none" xmlns="http://www.w3.org/2000/svg">
<path fill-rule="evenodd" clip-rule="evenodd" d="M8.75014 8.67196C7.19213 10.264 4.67953 10.2777 3.13809 8.7026C1.59664 7.12749 1.61007 4.56 3.16808 2.96797C4.72608 1.37593 7.23868 1.36221 8.78013 2.93732C10.3216 4.51244 10.3081 7.07992 8.75014 8.67196ZM11.0125 12.0318C9.98605 10.9828 8.35076 10.972 6.9249 11.2505C5.22893 11.5817 3.4159 11.083 2.11226 9.75084C0.0102917 7.60295 0.0286007 4.10184 2.15315 1.93088C4.27771 -0.240087 7.70398 -0.258796 9.80595 1.88909C11.1095 3.22113 11.5976 5.07363 11.2736 6.80656C11.0012 8.26357 11.0118 9.93454 12.0383 10.9834L13.5711 12.5498C13.8544 12.8392 13.8544 13.3085 13.5711 13.598V13.598C13.2879 13.8875 12.8286 13.8875 12.5453 13.598L11.0125 12.0318Z" fill="#A0ACA5"/>
</svg>
