<svg width="24" height="24" viewBox="0 0 24 24" fill="none" xmlns="http://www.w3.org/2000/svg">
<path d="M11.9998 2C12.1855 2.0001 12.3674 2.05188 12.5253 2.14955C12.6832 2.24722 12.8108 2.38692 12.8938 2.553L21.8938 20.553C21.9781 20.7219 22.0128 20.9113 21.994 21.0991C21.9752 21.2869 21.9036 21.4656 21.7875 21.6145C21.6713 21.7633 21.5155 21.8763 21.3379 21.9403C21.1602 22.0042 20.9682 22.0166 20.7838 21.976L11.9998 20.024L3.21679 21.976C3.03236 22.0169 2.84013 22.0046 2.66235 21.9408C2.48457 21.8769 2.32852 21.764 2.21227 21.6151C2.09602 21.4662 2.02432 21.2874 2.00548 21.0994C1.98663 20.9115 2.02141 20.722 2.10579 20.553L11.1058 2.553C11.1888 2.38692 11.3164 2.24722 11.4743 2.14955C11.6322 2.05188 11.8141 2.0001 11.9998 2ZM12.9998 18.198L19.1658 19.568L12.9998 7.236V18.198ZM10.9998 7.236L4.83379 19.568L10.9998 18.198V7.236Z" fill="#A0ACA5"/>
</svg>
