<svg width="16" height="16" viewBox="0 0 16 16" fill="none" xmlns="http://www.w3.org/2000/svg">
<g clip-path="url(#clip0_31_98)">
<path d="M0.676218 9.20886L1.7248 9.21539C1.8816 10.0222 2.19193 10.8062 2.66233 11.5184L1.91754 12.2566C1.64967 12.5212 1.64967 12.9491 1.911 13.217L2.71459 14.0304C2.97919 14.2983 3.40712 14.2983 3.67498 14.0369L4.41977 13.2987C5.12536 13.7756 5.90609 14.099 6.71294 14.2623L6.70641 15.3109C6.70314 15.6866 7.00694 15.9904 7.3826 15.9936L8.52592 16.0002C8.90158 16.0034 9.20538 15.6996 9.20864 15.324L9.21518 14.2754C10.022 14.1186 10.806 13.8083 11.5181 13.3379L12.2564 14.0827C12.521 14.3505 12.9489 14.3505 13.2168 14.0892L14.0302 13.2856C14.298 13.021 14.298 12.5931 14.0367 12.3252L13.2985 11.5804C13.7754 10.8748 14.0988 10.0941 14.2621 9.28726L15.3107 9.29379C15.6864 9.29706 15.9902 8.99326 15.9934 8.6176L16 7.47428C16.0032 7.09862 15.6994 6.79482 15.3238 6.79155L14.2752 6.78502C14.1184 5.97817 13.8081 5.19418 13.3377 4.48205L14.0824 3.74379C14.3503 3.4792 14.3503 3.05127 14.089 2.7834L13.2854 1.97002C13.0208 1.70215 12.5929 1.70215 12.325 1.96348L11.5802 2.70174C10.8746 2.22481 10.0939 1.90142 9.28704 1.73808L9.29358 0.689498C9.29684 0.313836 8.99305 0.0100396 8.61738 0.00677297L7.47407 0.000239722C7.0984 -0.0030269 6.79461 0.300769 6.79134 0.676431L6.78154 1.72502C5.97142 1.88182 5.18743 2.19215 4.47857 2.66254L3.74031 1.91775C3.47572 1.64989 3.04779 1.64989 2.77992 1.91122L1.9698 2.71481C1.70194 2.9794 1.70194 3.40733 1.96327 3.67519L2.70153 4.41998C2.2246 5.12558 1.9012 5.9063 1.73787 6.71316L0.689284 6.70662C0.313622 6.70336 0.00982598 7.00715 0.00655935 7.38281L2.6099e-05 8.52613C-0.00324053 8.89853 0.300556 9.20559 0.676218 9.20886ZM5.85709 5.83443C7.05267 4.65192 8.97671 4.66171 10.1592 5.8573C11.3418 7.05288 11.332 8.97693 10.1364 10.1594C8.94078 11.342 7.01674 11.3322 5.83422 10.1366C4.6517 8.94099 4.6615 7.01695 5.85709 5.83443Z" fill="#444443"/>
</g>
<defs>
<clipPath id="clip0_31_98">
<rect width="16" height="16" fill="white"/>
</clipPath>
</defs>
</svg>
