<svg width="32" height="32" viewBox="0 0 32 32" fill="none" xmlns="http://www.w3.org/2000/svg">
<path d="M16 1.23077C7.81543 1.23077 1.23079 7.81537 1.23079 16C1.23079 24.1846 7.81543 30.7692 16 30.7692C24.1846 30.7692 30.7692 24.1846 30.7692 16C30.7692 7.81537 24.1846 1.23077 16 1.23077ZM24.2461 12.3077L14.8308 21.8462C14.4616 22.2154 13.8461 22.2154 13.4769 21.8462L8.30772 16.6154C7.9385 16.2462 7.9385 15.6308 8.30772 15.2615L9.66157 13.9077C10.0308 13.5384 10.6461 13.5384 11.0154 13.9077L13.7231 16.6769C13.9692 16.9231 14.4 16.9231 14.6461 16.6769L21.5385 9.53844C21.9077 9.16922 22.5231 9.16922 22.8924 9.53844L24.2461 10.8923C24.6769 11.2615 24.6769 11.8769 24.2461 12.3077Z" fill="#2A6639"/>
</svg>
